<svg width="26" height="26" viewBox="0 0 26 26" fill="none" xmlns="http://www.w3.org/2000/svg">
<path d="M19 26.0001L25.0486 16.1641L13.506 15.8439L19 26.0001ZM0 4.00016C6.4526 4.00016 10.9823 3.46645 14.1192 3.02039C15.7067 2.79466 16.8683 2.60242 17.7783 2.50425C18.727 2.40191 19.1497 2.43905 19.3385 2.51271C19.391 2.53319 19.3923 2.54384 19.3942 2.54666C19.4075 2.56612 19.4525 2.64512 19.4847 2.8559C19.554 3.30948 19.5214 4.0371 19.3926 5.23601C19.1429 7.56094 18.5785 11.3009 18.2512 16.9478L20.2478 17.0636C20.5714 11.4815 21.1227 7.85616 21.3812 5.4496C21.5065 4.28276 21.5762 3.30308 21.4618 2.55401C21.4022 2.16348 21.2839 1.76732 21.0457 1.41858C20.7961 1.05319 20.4577 0.802584 20.0655 0.64954C19.3649 0.376141 18.4783 0.417133 17.5638 0.515788C16.6106 0.618617 15.3552 0.824516 13.8377 1.04031C10.7646 1.47729 6.33274 2.00016 0 2.00016V4.00016Z" fill="black"/>
</svg>
